<?xml version="1.0" encoding="utf-8" standalone="no"?>
<!DOCTYPE svg PUBLIC "-//W3C//DTD SVG 1.1//EN"
  "http://www.w3.org/Graphics/SVG/1.1/DTD/svg11.dtd">
<svg xmlns:xlink="http://www.w3.org/1999/xlink" width="492.930625pt" height="354.644531pt" viewBox="0 0 492.930625 354.644531" xmlns="http://www.w3.org/2000/svg" version="1.1">
 <metadata>
  <rdf:RDF xmlns:dc="http://purl.org/dc/elements/1.1/" xmlns:cc="http://creativecommons.org/ns#" xmlns:rdf="http://www.w3.org/1999/02/22-rdf-syntax-ns#">
   <cc:Work>
    <dc:type rdf:resource="http://purl.org/dc/dcmitype/StillImage"/>
    <dc:date>2026-04-26T13:18:42.994155</dc:date>
    <dc:format>image/svg+xml</dc:format>
    <dc:creator>
     <cc:Agent>
      <dc:title>Matplotlib v3.10.8, https://matplotlib.org/</dc:title>
     </cc:Agent>
    </dc:creator>
   </cc:Work>
  </rdf:RDF>
 </metadata>
 <defs>
  <style type="text/css">*{stroke-linejoin: round; stroke-linecap: butt}</style>
 </defs>
 <g id="figure_1">
  <g id="patch_1">
   <path d="M 0 354.644531 
L 492.930625 354.644531 
L 492.930625 0 
L 0 0 
z
" style="fill: #ffffff"/>
  </g>
  <g id="axes_1">
   <g id="patch_2">
    <path d="M 39.330625 298.758281 
L 485.730625 298.758281 
L 485.730625 21.558281 
L 39.330625 21.558281 
z
" style="fill: #ffffff"/>
   </g>
   <g id="patch_3">
    <path d="M 59.621534 298.758281 
L 96.514096 298.758281 
L 96.514096 93.630281 
L 59.621534 93.630281 
z
" clip-path="url(#p6e771bb0d5)" style="fill: #4878a6; stroke: #000000; stroke-width: 0.4; stroke-linejoin: miter"/>
   </g>
   <g id="patch_4">
    <path d="M 105.737237 298.758281 
L 142.629799 298.758281 
L 142.629799 160.158281 
L 105.737237 160.158281 
z
" clip-path="url(#p6e771bb0d5)" style="fill: #4878a6; stroke: #000000; stroke-width: 0.4; stroke-linejoin: miter"/>
   </g>
   <g id="patch_5">
    <path d="M 151.852939 298.758281 
L 188.745501 298.758281 
L 188.745501 198.966281 
L 151.852939 198.966281 
z
" clip-path="url(#p6e771bb0d5)" style="fill: #4878a6; stroke: #000000; stroke-width: 0.4; stroke-linejoin: miter"/>
   </g>
   <g id="patch_6">
    <path d="M 197.968642 298.758281 
L 234.861204 298.758281 
L 234.861204 198.966281 
L 197.968642 198.966281 
z
" clip-path="url(#p6e771bb0d5)" style="fill: #4878a6; stroke: #000000; stroke-width: 0.4; stroke-linejoin: miter"/>
   </g>
   <g id="patch_7">
    <path d="M 244.084344 298.758281 
L 280.976906 298.758281 
L 280.976906 226.686281 
L 244.084344 226.686281 
z
" clip-path="url(#p6e771bb0d5)" style="fill: #4878a6; stroke: #000000; stroke-width: 0.4; stroke-linejoin: miter"/>
   </g>
   <g id="patch_8">
    <path d="M 290.200046 298.758281 
L 327.092608 298.758281 
L 327.092608 254.406281 
L 290.200046 254.406281 
z
" clip-path="url(#p6e771bb0d5)" style="fill: #4878a6; stroke: #000000; stroke-width: 0.4; stroke-linejoin: miter"/>
   </g>
   <g id="patch_9">
    <path d="M 336.315749 298.758281 
L 373.208311 298.758281 
L 373.208311 254.406281 
L 336.315749 254.406281 
z
" clip-path="url(#p6e771bb0d5)" style="fill: #4878a6; stroke: #000000; stroke-width: 0.4; stroke-linejoin: miter"/>
   </g>
   <g id="patch_10">
    <path d="M 382.431451 298.758281 
L 419.324013 298.758281 
L 419.324013 254.406281 
L 382.431451 254.406281 
z
" clip-path="url(#p6e771bb0d5)" style="fill: #4878a6; stroke: #000000; stroke-width: 0.4; stroke-linejoin: miter"/>
   </g>
   <g id="patch_11">
    <path d="M 428.547154 298.758281 
L 465.439716 298.758281 
L 465.439716 271.038281 
L 428.547154 271.038281 
z
" clip-path="url(#p6e771bb0d5)" style="fill: #4878a6; stroke: #000000; stroke-width: 0.4; stroke-linejoin: miter"/>
   </g>
   <g id="patch_12">
    <path d="M 59.621534 93.630281 
L 96.514096 93.630281 
L 96.514096 49.278281 
L 59.621534 49.278281 
z
" clip-path="url(#p6e771bb0d5)" style="fill: #d65f5f; stroke: #000000; stroke-width: 0.4; stroke-linejoin: miter"/>
   </g>
   <g id="patch_13">
    <path d="M 105.737237 160.158281 
L 142.629799 160.158281 
L 142.629799 126.894281 
L 105.737237 126.894281 
z
" clip-path="url(#p6e771bb0d5)" style="fill: #d65f5f; stroke: #000000; stroke-width: 0.4; stroke-linejoin: miter"/>
   </g>
   <g id="patch_14">
    <path d="M 151.852939 198.966281 
L 188.745501 198.966281 
L 188.745501 176.790281 
L 151.852939 176.790281 
z
" clip-path="url(#p6e771bb0d5)" style="fill: #d65f5f; stroke: #000000; stroke-width: 0.4; stroke-linejoin: miter"/>
   </g>
   <g id="patch_15">
    <path d="M 197.968642 198.966281 
L 234.861204 198.966281 
L 234.861204 176.790281 
L 197.968642 176.790281 
z
" clip-path="url(#p6e771bb0d5)" style="fill: #d65f5f; stroke: #000000; stroke-width: 0.4; stroke-linejoin: miter"/>
   </g>
   <g id="patch_16">
    <path d="M 244.084344 226.686281 
L 280.976906 226.686281 
L 280.976906 215.598281 
L 244.084344 215.598281 
z
" clip-path="url(#p6e771bb0d5)" style="fill: #d65f5f; stroke: #000000; stroke-width: 0.4; stroke-linejoin: miter"/>
   </g>
   <g id="patch_17">
    <path d="M 290.200046 254.406281 
L 327.092608 254.406281 
L 327.092608 248.862281 
L 290.200046 248.862281 
z
" clip-path="url(#p6e771bb0d5)" style="fill: #d65f5f; stroke: #000000; stroke-width: 0.4; stroke-linejoin: miter"/>
   </g>
   <g id="patch_18">
    <path d="M 336.315749 254.406281 
L 373.208311 254.406281 
L 373.208311 248.862281 
L 336.315749 248.862281 
z
" clip-path="url(#p6e771bb0d5)" style="fill: #d65f5f; stroke: #000000; stroke-width: 0.4; stroke-linejoin: miter"/>
   </g>
   <g id="patch_19">
    <path d="M 382.431451 254.406281 
L 419.324013 254.406281 
L 419.324013 248.862281 
L 382.431451 248.862281 
z
" clip-path="url(#p6e771bb0d5)" style="fill: #d65f5f; stroke: #000000; stroke-width: 0.4; stroke-linejoin: miter"/>
   </g>
   <g id="patch_20">
    <path d="M 428.547154 271.038281 
L 465.439716 271.038281 
L 465.439716 265.494281 
L 428.547154 265.494281 
z
" clip-path="url(#p6e771bb0d5)" style="fill: #d65f5f; stroke: #000000; stroke-width: 0.4; stroke-linejoin: miter"/>
   </g>
   <g id="matplotlib.axis_1">
    <g id="xtick_1">
     <g id="line2d_1">
      <defs>
       <path id="mf220ad7277" d="M 0 0 
L 0 3.5 
" style="stroke: #000000; stroke-width: 0.8"/>
      </defs>
      <g>
       <use xlink:href="#mf220ad7277" x="78.067815" y="298.758281" style="stroke: #000000; stroke-width: 0.8"/>
      </g>
     </g>
     <g id="text_1">
      <!-- @P -->
      <g transform="translate(70.854456 312.596875) scale(0.09 -0.09)">
       <defs>
        <path id="DejaVuSans-40" d="M 2381 1678 
Q 2381 1231 2603 976 
Q 2825 722 3213 722 
Q 3597 722 3817 978 
Q 4038 1234 4038 1678 
Q 4038 2116 3813 2373 
Q 3588 2631 3206 2631 
Q 2828 2631 2604 2375 
Q 2381 2119 2381 1678 
z
M 4084 744 
Q 3897 503 3655 389 
Q 3413 275 3091 275 
Q 2553 275 2217 664 
Q 1881 1053 1881 1678 
Q 1881 2303 2218 2693 
Q 2556 3084 3091 3084 
Q 3413 3084 3656 2967 
Q 3900 2850 4084 2613 
L 4084 3022 
L 4531 3022 
L 4531 722 
Q 4988 791 5245 1139 
Q 5503 1488 5503 2041 
Q 5503 2375 5404 2669 
Q 5306 2963 5106 3213 
Q 4781 3622 4314 3839 
Q 3847 4056 3297 4056 
Q 2913 4056 2559 3954 
Q 2206 3853 1906 3653 
Q 1416 3334 1139 2817 
Q 863 2300 863 1697 
Q 863 1200 1042 765 
Q 1222 331 1563 0 
Q 1891 -325 2322 -495 
Q 2753 -666 3244 -666 
Q 3647 -666 4036 -530 
Q 4425 -394 4750 -141 
L 5031 -488 
Q 4641 -791 4180 -952 
Q 3719 -1113 3244 -1113 
Q 2666 -1113 2153 -908 
Q 1641 -703 1241 -313 
Q 841 78 631 592 
Q 422 1106 422 1697 
Q 422 2266 634 2781 
Q 847 3297 1241 3688 
Q 1644 4084 2172 4295 
Q 2700 4506 3291 4506 
Q 3953 4506 4520 4234 
Q 5088 3963 5472 3463 
Q 5706 3156 5829 2797 
Q 5953 2438 5953 2053 
Q 5953 1231 5456 756 
Q 4959 281 4084 263 
L 4084 744 
z
" transform="scale(0.015625)"/>
        <path id="DejaVuSans-50" d="M 1259 4147 
L 1259 2394 
L 2053 2394 
Q 2494 2394 2734 2622 
Q 2975 2850 2975 3272 
Q 2975 3691 2734 3919 
Q 2494 4147 2053 4147 
L 1259 4147 
z
M 628 4666 
L 2053 4666 
Q 2838 4666 3239 4311 
Q 3641 3956 3641 3272 
Q 3641 2581 3239 2228 
Q 2838 1875 2053 1875 
L 1259 1875 
L 1259 0 
L 628 0 
L 628 4666 
z
" transform="scale(0.015625)"/>
       </defs>
       <use xlink:href="#DejaVuSans-40"/>
       <use xlink:href="#DejaVuSans-50" transform="translate(100 0)"/>
      </g>
     </g>
    </g>
    <g id="xtick_2">
     <g id="line2d_2">
      <g>
       <use xlink:href="#mf220ad7277" x="124.183518" y="298.758281" style="stroke: #000000; stroke-width: 0.8"/>
      </g>
     </g>
     <g id="text_2">
      <!-- @F -->
      <g transform="translate(117.095314 312.596875) scale(0.09 -0.09)">
       <defs>
        <path id="DejaVuSans-46" d="M 628 4666 
L 3309 4666 
L 3309 4134 
L 1259 4134 
L 1259 2759 
L 3109 2759 
L 3109 2228 
L 1259 2228 
L 1259 0 
L 628 0 
L 628 4666 
z
" transform="scale(0.015625)"/>
       </defs>
       <use xlink:href="#DejaVuSans-40"/>
       <use xlink:href="#DejaVuSans-46" transform="translate(100 0)"/>
      </g>
     </g>
    </g>
    <g id="xtick_3">
     <g id="line2d_3">
      <g>
       <use xlink:href="#mf220ad7277" x="170.29922" y="298.758281" style="stroke: #000000; stroke-width: 0.8"/>
      </g>
     </g>
     <g id="text_3">
      <!-- @R -->
      <g transform="translate(162.672423 312.596875) scale(0.09 -0.09)">
       <defs>
        <path id="DejaVuSans-52" d="M 2841 2188 
Q 3044 2119 3236 1894 
Q 3428 1669 3622 1275 
L 4263 0 
L 3584 0 
L 2988 1197 
Q 2756 1666 2539 1819 
Q 2322 1972 1947 1972 
L 1259 1972 
L 1259 0 
L 628 0 
L 628 4666 
L 2053 4666 
Q 2853 4666 3247 4331 
Q 3641 3997 3641 3322 
Q 3641 2881 3436 2590 
Q 3231 2300 2841 2188 
z
M 1259 4147 
L 1259 2491 
L 2053 2491 
Q 2509 2491 2742 2702 
Q 2975 2913 2975 3322 
Q 2975 3731 2742 3939 
Q 2509 4147 2053 4147 
L 1259 4147 
z
" transform="scale(0.015625)"/>
       </defs>
       <use xlink:href="#DejaVuSans-40"/>
       <use xlink:href="#DejaVuSans-52" transform="translate(100 0)"/>
      </g>
     </g>
    </g>
    <g id="xtick_4">
     <g id="line2d_4">
      <g>
       <use xlink:href="#mf220ad7277" x="216.414923" y="298.758281" style="stroke: #000000; stroke-width: 0.8"/>
      </g>
     </g>
     <g id="text_4">
      <!-- @C -->
      <g transform="translate(208.772657 312.596875) scale(0.09 -0.09)">
       <defs>
        <path id="DejaVuSans-43" d="M 4122 4306 
L 4122 3641 
Q 3803 3938 3442 4084 
Q 3081 4231 2675 4231 
Q 1875 4231 1450 3742 
Q 1025 3253 1025 2328 
Q 1025 1406 1450 917 
Q 1875 428 2675 428 
Q 3081 428 3442 575 
Q 3803 722 4122 1019 
L 4122 359 
Q 3791 134 3420 21 
Q 3050 -91 2638 -91 
Q 1578 -91 968 557 
Q 359 1206 359 2328 
Q 359 3453 968 4101 
Q 1578 4750 2638 4750 
Q 3056 4750 3426 4639 
Q 3797 4528 4122 4306 
z
" transform="scale(0.015625)"/>
       </defs>
       <use xlink:href="#DejaVuSans-40"/>
       <use xlink:href="#DejaVuSans-43" transform="translate(100 0)"/>
      </g>
     </g>
    </g>
    <g id="xtick_5">
     <g id="line2d_5">
      <g>
       <use xlink:href="#mf220ad7277" x="262.530625" y="298.758281" style="stroke: #000000; stroke-width: 0.8"/>
      </g>
     </g>
     <g id="text_5">
      <!-- @X -->
      <g transform="translate(254.948125 312.596875) scale(0.09 -0.09)">
       <defs>
        <path id="DejaVuSans-58" d="M 403 4666 
L 1081 4666 
L 2241 2931 
L 3406 4666 
L 4084 4666 
L 2584 2425 
L 4184 0 
L 3506 0 
L 2194 1984 
L 872 0 
L 191 0 
L 1856 2491 
L 403 4666 
z
" transform="scale(0.015625)"/>
       </defs>
       <use xlink:href="#DejaVuSans-40"/>
       <use xlink:href="#DejaVuSans-58" transform="translate(100 0)"/>
      </g>
     </g>
    </g>
    <g id="xtick_6">
     <g id="line2d_6">
      <g>
       <use xlink:href="#mf220ad7277" x="308.646327" y="298.758281" style="stroke: #000000; stroke-width: 0.8"/>
      </g>
     </g>
     <g id="text_6">
      <!-- @L -->
      <g transform="translate(301.638984 312.596875) scale(0.09 -0.09)">
       <defs>
        <path id="DejaVuSans-4c" d="M 628 4666 
L 1259 4666 
L 1259 531 
L 3531 531 
L 3531 0 
L 628 0 
L 628 4666 
z
" transform="scale(0.015625)"/>
       </defs>
       <use xlink:href="#DejaVuSans-40"/>
       <use xlink:href="#DejaVuSans-4c" transform="translate(100 0)"/>
      </g>
     </g>
    </g>
    <g id="xtick_7">
     <g id="line2d_7">
      <g>
       <use xlink:href="#mf220ad7277" x="354.76203" y="298.758281" style="stroke: #000000; stroke-width: 0.8"/>
      </g>
     </g>
     <g id="text_7">
      <!-- @S -->
      <g transform="translate(347.405233 312.596875) scale(0.09 -0.09)">
       <defs>
        <path id="DejaVuSans-53" d="M 3425 4513 
L 3425 3897 
Q 3066 4069 2747 4153 
Q 2428 4238 2131 4238 
Q 1616 4238 1336 4038 
Q 1056 3838 1056 3469 
Q 1056 3159 1242 3001 
Q 1428 2844 1947 2747 
L 2328 2669 
Q 3034 2534 3370 2195 
Q 3706 1856 3706 1288 
Q 3706 609 3251 259 
Q 2797 -91 1919 -91 
Q 1588 -91 1214 -16 
Q 841 59 441 206 
L 441 856 
Q 825 641 1194 531 
Q 1563 422 1919 422 
Q 2459 422 2753 634 
Q 3047 847 3047 1241 
Q 3047 1584 2836 1778 
Q 2625 1972 2144 2069 
L 1759 2144 
Q 1053 2284 737 2584 
Q 422 2884 422 3419 
Q 422 4038 858 4394 
Q 1294 4750 2059 4750 
Q 2388 4750 2728 4690 
Q 3069 4631 3425 4513 
z
" transform="scale(0.015625)"/>
       </defs>
       <use xlink:href="#DejaVuSans-40"/>
       <use xlink:href="#DejaVuSans-53" transform="translate(100 0)"/>
      </g>
     </g>
    </g>
    <g id="xtick_8">
     <g id="line2d_8">
      <g>
       <use xlink:href="#mf220ad7277" x="400.877732" y="298.758281" style="stroke: #000000; stroke-width: 0.8"/>
      </g>
     </g>
     <g id="text_8">
      <!-- @M -->
      <g transform="translate(392.495076 312.596875) scale(0.09 -0.09)">
       <defs>
        <path id="DejaVuSans-4d" d="M 628 4666 
L 1569 4666 
L 2759 1491 
L 3956 4666 
L 4897 4666 
L 4897 0 
L 4281 0 
L 4281 4097 
L 3078 897 
L 2444 897 
L 1241 4097 
L 1241 0 
L 628 0 
L 628 4666 
z
" transform="scale(0.015625)"/>
       </defs>
       <use xlink:href="#DejaVuSans-40"/>
       <use xlink:href="#DejaVuSans-4d" transform="translate(100 0)"/>
      </g>
     </g>
    </g>
    <g id="xtick_9">
     <g id="line2d_9">
      <g>
       <use xlink:href="#mf220ad7277" x="446.993435" y="298.758281" style="stroke: #000000; stroke-width: 0.8"/>
      </g>
     </g>
     <g id="text_9">
      <!-- @T -->
      <g transform="translate(439.744919 312.596875) scale(0.09 -0.09)">
       <defs>
        <path id="DejaVuSans-54" d="M -19 4666 
L 3928 4666 
L 3928 4134 
L 2272 4134 
L 2272 0 
L 1638 0 
L 1638 4134 
L -19 4134 
L -19 4666 
z
" transform="scale(0.015625)"/>
       </defs>
       <use xlink:href="#DejaVuSans-40"/>
       <use xlink:href="#DejaVuSans-54" transform="translate(100 0)"/>
      </g>
     </g>
    </g>
    <g id="text_10">
     <!-- atlas type discriminator -->
     <g transform="translate(203.17125 326.067031) scale(0.1 -0.1)">
      <defs>
       <path id="DejaVuSans-61" d="M 2194 1759 
Q 1497 1759 1228 1600 
Q 959 1441 959 1056 
Q 959 750 1161 570 
Q 1363 391 1709 391 
Q 2188 391 2477 730 
Q 2766 1069 2766 1631 
L 2766 1759 
L 2194 1759 
z
M 3341 1997 
L 3341 0 
L 2766 0 
L 2766 531 
Q 2569 213 2275 61 
Q 1981 -91 1556 -91 
Q 1019 -91 701 211 
Q 384 513 384 1019 
Q 384 1609 779 1909 
Q 1175 2209 1959 2209 
L 2766 2209 
L 2766 2266 
Q 2766 2663 2505 2880 
Q 2244 3097 1772 3097 
Q 1472 3097 1187 3025 
Q 903 2953 641 2809 
L 641 3341 
Q 956 3463 1253 3523 
Q 1550 3584 1831 3584 
Q 2591 3584 2966 3190 
Q 3341 2797 3341 1997 
z
" transform="scale(0.015625)"/>
       <path id="DejaVuSans-74" d="M 1172 4494 
L 1172 3500 
L 2356 3500 
L 2356 3053 
L 1172 3053 
L 1172 1153 
Q 1172 725 1289 603 
Q 1406 481 1766 481 
L 2356 481 
L 2356 0 
L 1766 0 
Q 1100 0 847 248 
Q 594 497 594 1153 
L 594 3053 
L 172 3053 
L 172 3500 
L 594 3500 
L 594 4494 
L 1172 4494 
z
" transform="scale(0.015625)"/>
       <path id="DejaVuSans-6c" d="M 603 4863 
L 1178 4863 
L 1178 0 
L 603 0 
L 603 4863 
z
" transform="scale(0.015625)"/>
       <path id="DejaVuSans-73" d="M 2834 3397 
L 2834 2853 
Q 2591 2978 2328 3040 
Q 2066 3103 1784 3103 
Q 1356 3103 1142 2972 
Q 928 2841 928 2578 
Q 928 2378 1081 2264 
Q 1234 2150 1697 2047 
L 1894 2003 
Q 2506 1872 2764 1633 
Q 3022 1394 3022 966 
Q 3022 478 2636 193 
Q 2250 -91 1575 -91 
Q 1294 -91 989 -36 
Q 684 19 347 128 
L 347 722 
Q 666 556 975 473 
Q 1284 391 1588 391 
Q 1994 391 2212 530 
Q 2431 669 2431 922 
Q 2431 1156 2273 1281 
Q 2116 1406 1581 1522 
L 1381 1569 
Q 847 1681 609 1914 
Q 372 2147 372 2553 
Q 372 3047 722 3315 
Q 1072 3584 1716 3584 
Q 2034 3584 2315 3537 
Q 2597 3491 2834 3397 
z
" transform="scale(0.015625)"/>
       <path id="DejaVuSans-20" transform="scale(0.015625)"/>
       <path id="DejaVuSans-79" d="M 2059 -325 
Q 1816 -950 1584 -1140 
Q 1353 -1331 966 -1331 
L 506 -1331 
L 506 -850 
L 844 -850 
Q 1081 -850 1212 -737 
Q 1344 -625 1503 -206 
L 1606 56 
L 191 3500 
L 800 3500 
L 1894 763 
L 2988 3500 
L 3597 3500 
L 2059 -325 
z
" transform="scale(0.015625)"/>
       <path id="DejaVuSans-70" d="M 1159 525 
L 1159 -1331 
L 581 -1331 
L 581 3500 
L 1159 3500 
L 1159 2969 
Q 1341 3281 1617 3432 
Q 1894 3584 2278 3584 
Q 2916 3584 3314 3078 
Q 3713 2572 3713 1747 
Q 3713 922 3314 415 
Q 2916 -91 2278 -91 
Q 1894 -91 1617 61 
Q 1341 213 1159 525 
z
M 3116 1747 
Q 3116 2381 2855 2742 
Q 2594 3103 2138 3103 
Q 1681 3103 1420 2742 
Q 1159 2381 1159 1747 
Q 1159 1113 1420 752 
Q 1681 391 2138 391 
Q 2594 391 2855 752 
Q 3116 1113 3116 1747 
z
" transform="scale(0.015625)"/>
       <path id="DejaVuSans-65" d="M 3597 1894 
L 3597 1613 
L 953 1613 
Q 991 1019 1311 708 
Q 1631 397 2203 397 
Q 2534 397 2845 478 
Q 3156 559 3463 722 
L 3463 178 
Q 3153 47 2828 -22 
Q 2503 -91 2169 -91 
Q 1331 -91 842 396 
Q 353 884 353 1716 
Q 353 2575 817 3079 
Q 1281 3584 2069 3584 
Q 2775 3584 3186 3129 
Q 3597 2675 3597 1894 
z
M 3022 2063 
Q 3016 2534 2758 2815 
Q 2500 3097 2075 3097 
Q 1594 3097 1305 2825 
Q 1016 2553 972 2059 
L 3022 2063 
z
" transform="scale(0.015625)"/>
       <path id="DejaVuSans-64" d="M 2906 2969 
L 2906 4863 
L 3481 4863 
L 3481 0 
L 2906 0 
L 2906 525 
Q 2725 213 2448 61 
Q 2172 -91 1784 -91 
Q 1150 -91 751 415 
Q 353 922 353 1747 
Q 353 2572 751 3078 
Q 1150 3584 1784 3584 
Q 2172 3584 2448 3432 
Q 2725 3281 2906 2969 
z
M 947 1747 
Q 947 1113 1208 752 
Q 1469 391 1925 391 
Q 2381 391 2643 752 
Q 2906 1113 2906 1747 
Q 2906 2381 2643 2742 
Q 2381 3103 1925 3103 
Q 1469 3103 1208 2742 
Q 947 2381 947 1747 
z
" transform="scale(0.015625)"/>
       <path id="DejaVuSans-69" d="M 603 3500 
L 1178 3500 
L 1178 0 
L 603 0 
L 603 3500 
z
M 603 4863 
L 1178 4863 
L 1178 4134 
L 603 4134 
L 603 4863 
z
" transform="scale(0.015625)"/>
       <path id="DejaVuSans-63" d="M 3122 3366 
L 3122 2828 
Q 2878 2963 2633 3030 
Q 2388 3097 2138 3097 
Q 1578 3097 1268 2742 
Q 959 2388 959 1747 
Q 959 1106 1268 751 
Q 1578 397 2138 397 
Q 2388 397 2633 464 
Q 2878 531 3122 666 
L 3122 134 
Q 2881 22 2623 -34 
Q 2366 -91 2075 -91 
Q 1284 -91 818 406 
Q 353 903 353 1747 
Q 353 2603 823 3093 
Q 1294 3584 2113 3584 
Q 2378 3584 2631 3529 
Q 2884 3475 3122 3366 
z
" transform="scale(0.015625)"/>
       <path id="DejaVuSans-72" d="M 2631 2963 
Q 2534 3019 2420 3045 
Q 2306 3072 2169 3072 
Q 1681 3072 1420 2755 
Q 1159 2438 1159 1844 
L 1159 0 
L 581 0 
L 581 3500 
L 1159 3500 
L 1159 2956 
Q 1341 3275 1631 3429 
Q 1922 3584 2338 3584 
Q 2397 3584 2469 3576 
Q 2541 3569 2628 3553 
L 2631 2963 
z
" transform="scale(0.015625)"/>
       <path id="DejaVuSans-6d" d="M 3328 2828 
Q 3544 3216 3844 3400 
Q 4144 3584 4550 3584 
Q 5097 3584 5394 3201 
Q 5691 2819 5691 2113 
L 5691 0 
L 5113 0 
L 5113 2094 
Q 5113 2597 4934 2840 
Q 4756 3084 4391 3084 
Q 3944 3084 3684 2787 
Q 3425 2491 3425 1978 
L 3425 0 
L 2847 0 
L 2847 2094 
Q 2847 2600 2669 2842 
Q 2491 3084 2119 3084 
Q 1678 3084 1418 2786 
Q 1159 2488 1159 1978 
L 1159 0 
L 581 0 
L 581 3500 
L 1159 3500 
L 1159 2956 
Q 1356 3278 1631 3431 
Q 1906 3584 2284 3584 
Q 2666 3584 2933 3390 
Q 3200 3197 3328 2828 
z
" transform="scale(0.015625)"/>
       <path id="DejaVuSans-6e" d="M 3513 2113 
L 3513 0 
L 2938 0 
L 2938 2094 
Q 2938 2591 2744 2837 
Q 2550 3084 2163 3084 
Q 1697 3084 1428 2787 
Q 1159 2491 1159 1978 
L 1159 0 
L 581 0 
L 581 3500 
L 1159 3500 
L 1159 2956 
Q 1366 3272 1645 3428 
Q 1925 3584 2291 3584 
Q 2894 3584 3203 3211 
Q 3513 2838 3513 2113 
z
" transform="scale(0.015625)"/>
       <path id="DejaVuSans-6f" d="M 1959 3097 
Q 1497 3097 1228 2736 
Q 959 2375 959 1747 
Q 959 1119 1226 758 
Q 1494 397 1959 397 
Q 2419 397 2687 759 
Q 2956 1122 2956 1747 
Q 2956 2369 2687 2733 
Q 2419 3097 1959 3097 
z
M 1959 3584 
Q 2709 3584 3137 3096 
Q 3566 2609 3566 1747 
Q 3566 888 3137 398 
Q 2709 -91 1959 -91 
Q 1206 -91 779 398 
Q 353 888 353 1747 
Q 353 2609 779 3096 
Q 1206 3584 1959 3584 
z
" transform="scale(0.015625)"/>
      </defs>
      <use xlink:href="#DejaVuSans-61"/>
      <use xlink:href="#DejaVuSans-74" transform="translate(61.279297 0)"/>
      <use xlink:href="#DejaVuSans-6c" transform="translate(100.488281 0)"/>
      <use xlink:href="#DejaVuSans-61" transform="translate(128.271484 0)"/>
      <use xlink:href="#DejaVuSans-73" transform="translate(189.550781 0)"/>
      <use xlink:href="#DejaVuSans-20" transform="translate(241.650391 0)"/>
      <use xlink:href="#DejaVuSans-74" transform="translate(273.4375 0)"/>
      <use xlink:href="#DejaVuSans-79" transform="translate(312.646484 0)"/>
      <use xlink:href="#DejaVuSans-70" transform="translate(371.826172 0)"/>
      <use xlink:href="#DejaVuSans-65" transform="translate(435.302734 0)"/>
      <use xlink:href="#DejaVuSans-20" transform="translate(496.826172 0)"/>
      <use xlink:href="#DejaVuSans-64" transform="translate(528.613281 0)"/>
      <use xlink:href="#DejaVuSans-69" transform="translate(592.089844 0)"/>
      <use xlink:href="#DejaVuSans-73" transform="translate(619.873047 0)"/>
      <use xlink:href="#DejaVuSans-63" transform="translate(671.972656 0)"/>
      <use xlink:href="#DejaVuSans-72" transform="translate(726.953125 0)"/>
      <use xlink:href="#DejaVuSans-69" transform="translate(768.066406 0)"/>
      <use xlink:href="#DejaVuSans-6d" transform="translate(795.849609 0)"/>
      <use xlink:href="#DejaVuSans-69" transform="translate(893.261719 0)"/>
      <use xlink:href="#DejaVuSans-6e" transform="translate(921.044922 0)"/>
      <use xlink:href="#DejaVuSans-61" transform="translate(984.423828 0)"/>
      <use xlink:href="#DejaVuSans-74" transform="translate(1045.703125 0)"/>
      <use xlink:href="#DejaVuSans-6f" transform="translate(1084.912109 0)"/>
      <use xlink:href="#DejaVuSans-72" transform="translate(1146.09375 0)"/>
     </g>
    </g>
   </g>
   <g id="matplotlib.axis_2">
    <g id="ytick_1">
     <g id="line2d_10">
      <path d="M 39.330625 298.758281 
L 485.730625 298.758281 
" clip-path="url(#p6e771bb0d5)" style="fill: none; stroke-dasharray: 0.8,1.32; stroke-dashoffset: 0; stroke: #b0b0b0; stroke-opacity: 0.25; stroke-width: 0.8"/>
     </g>
     <g id="line2d_11">
      <defs>
       <path id="m78d966114c" d="M 0 0 
L -3.5 0 
" style="stroke: #000000; stroke-width: 0.8"/>
      </defs>
      <g>
       <use xlink:href="#m78d966114c" x="39.330625" y="298.758281" style="stroke: #000000; stroke-width: 0.8"/>
      </g>
     </g>
     <g id="text_11">
      <!-- 0 -->
      <g transform="translate(26.604375 302.177578) scale(0.09 -0.09)">
       <defs>
        <path id="DejaVuSans-30" d="M 2034 4250 
Q 1547 4250 1301 3770 
Q 1056 3291 1056 2328 
Q 1056 1369 1301 889 
Q 1547 409 2034 409 
Q 2525 409 2770 889 
Q 3016 1369 3016 2328 
Q 3016 3291 2770 3770 
Q 2525 4250 2034 4250 
z
M 2034 4750 
Q 2819 4750 3233 4129 
Q 3647 3509 3647 2328 
Q 3647 1150 3233 529 
Q 2819 -91 2034 -91 
Q 1250 -91 836 529 
Q 422 1150 422 2328 
Q 422 3509 836 4129 
Q 1250 4750 2034 4750 
z
" transform="scale(0.015625)"/>
       </defs>
       <use xlink:href="#DejaVuSans-30"/>
      </g>
     </g>
    </g>
    <g id="ytick_2">
     <g id="line2d_12">
      <path d="M 39.330625 243.318281 
L 485.730625 243.318281 
" clip-path="url(#p6e771bb0d5)" style="fill: none; stroke-dasharray: 0.8,1.32; stroke-dashoffset: 0; stroke: #b0b0b0; stroke-opacity: 0.25; stroke-width: 0.8"/>
     </g>
     <g id="line2d_13">
      <g>
       <use xlink:href="#m78d966114c" x="39.330625" y="243.318281" style="stroke: #000000; stroke-width: 0.8"/>
      </g>
     </g>
     <g id="text_12">
      <!-- 10 -->
      <g transform="translate(20.878125 246.737578) scale(0.09 -0.09)">
       <defs>
        <path id="DejaVuSans-31" d="M 794 531 
L 1825 531 
L 1825 4091 
L 703 3866 
L 703 4441 
L 1819 4666 
L 2450 4666 
L 2450 531 
L 3481 531 
L 3481 0 
L 794 0 
L 794 531 
z
" transform="scale(0.015625)"/>
       </defs>
       <use xlink:href="#DejaVuSans-31"/>
       <use xlink:href="#DejaVuSans-30" transform="translate(63.623047 0)"/>
      </g>
     </g>
    </g>
    <g id="ytick_3">
     <g id="line2d_14">
      <path d="M 39.330625 187.878281 
L 485.730625 187.878281 
" clip-path="url(#p6e771bb0d5)" style="fill: none; stroke-dasharray: 0.8,1.32; stroke-dashoffset: 0; stroke: #b0b0b0; stroke-opacity: 0.25; stroke-width: 0.8"/>
     </g>
     <g id="line2d_15">
      <g>
       <use xlink:href="#m78d966114c" x="39.330625" y="187.878281" style="stroke: #000000; stroke-width: 0.8"/>
      </g>
     </g>
     <g id="text_13">
      <!-- 20 -->
      <g transform="translate(20.878125 191.297578) scale(0.09 -0.09)">
       <defs>
        <path id="DejaVuSans-32" d="M 1228 531 
L 3431 531 
L 3431 0 
L 469 0 
L 469 531 
Q 828 903 1448 1529 
Q 2069 2156 2228 2338 
Q 2531 2678 2651 2914 
Q 2772 3150 2772 3378 
Q 2772 3750 2511 3984 
Q 2250 4219 1831 4219 
Q 1534 4219 1204 4116 
Q 875 4013 500 3803 
L 500 4441 
Q 881 4594 1212 4672 
Q 1544 4750 1819 4750 
Q 2544 4750 2975 4387 
Q 3406 4025 3406 3419 
Q 3406 3131 3298 2873 
Q 3191 2616 2906 2266 
Q 2828 2175 2409 1742 
Q 1991 1309 1228 531 
z
" transform="scale(0.015625)"/>
       </defs>
       <use xlink:href="#DejaVuSans-32"/>
       <use xlink:href="#DejaVuSans-30" transform="translate(63.623047 0)"/>
      </g>
     </g>
    </g>
    <g id="ytick_4">
     <g id="line2d_16">
      <path d="M 39.330625 132.438281 
L 485.730625 132.438281 
" clip-path="url(#p6e771bb0d5)" style="fill: none; stroke-dasharray: 0.8,1.32; stroke-dashoffset: 0; stroke: #b0b0b0; stroke-opacity: 0.25; stroke-width: 0.8"/>
     </g>
     <g id="line2d_17">
      <g>
       <use xlink:href="#m78d966114c" x="39.330625" y="132.438281" style="stroke: #000000; stroke-width: 0.8"/>
      </g>
     </g>
     <g id="text_14">
      <!-- 30 -->
      <g transform="translate(20.878125 135.857578) scale(0.09 -0.09)">
       <defs>
        <path id="DejaVuSans-33" d="M 2597 2516 
Q 3050 2419 3304 2112 
Q 3559 1806 3559 1356 
Q 3559 666 3084 287 
Q 2609 -91 1734 -91 
Q 1441 -91 1130 -33 
Q 819 25 488 141 
L 488 750 
Q 750 597 1062 519 
Q 1375 441 1716 441 
Q 2309 441 2620 675 
Q 2931 909 2931 1356 
Q 2931 1769 2642 2001 
Q 2353 2234 1838 2234 
L 1294 2234 
L 1294 2753 
L 1863 2753 
Q 2328 2753 2575 2939 
Q 2822 3125 2822 3475 
Q 2822 3834 2567 4026 
Q 2313 4219 1838 4219 
Q 1578 4219 1281 4162 
Q 984 4106 628 3988 
L 628 4550 
Q 988 4650 1302 4700 
Q 1616 4750 1894 4750 
Q 2613 4750 3031 4423 
Q 3450 4097 3450 3541 
Q 3450 3153 3228 2886 
Q 3006 2619 2597 2516 
z
" transform="scale(0.015625)"/>
       </defs>
       <use xlink:href="#DejaVuSans-33"/>
       <use xlink:href="#DejaVuSans-30" transform="translate(63.623047 0)"/>
      </g>
     </g>
    </g>
    <g id="ytick_5">
     <g id="line2d_18">
      <path d="M 39.330625 76.998281 
L 485.730625 76.998281 
" clip-path="url(#p6e771bb0d5)" style="fill: none; stroke-dasharray: 0.8,1.32; stroke-dashoffset: 0; stroke: #b0b0b0; stroke-opacity: 0.25; stroke-width: 0.8"/>
     </g>
     <g id="line2d_19">
      <g>
       <use xlink:href="#m78d966114c" x="39.330625" y="76.998281" style="stroke: #000000; stroke-width: 0.8"/>
      </g>
     </g>
     <g id="text_15">
      <!-- 40 -->
      <g transform="translate(20.878125 80.417578) scale(0.09 -0.09)">
       <defs>
        <path id="DejaVuSans-34" d="M 2419 4116 
L 825 1625 
L 2419 1625 
L 2419 4116 
z
M 2253 4666 
L 3047 4666 
L 3047 1625 
L 3713 1625 
L 3713 1100 
L 3047 1100 
L 3047 0 
L 2419 0 
L 2419 1100 
L 313 1100 
L 313 1709 
L 2253 4666 
z
" transform="scale(0.015625)"/>
       </defs>
       <use xlink:href="#DejaVuSans-34"/>
       <use xlink:href="#DejaVuSans-30" transform="translate(63.623047 0)"/>
      </g>
     </g>
    </g>
    <g id="ytick_6">
     <g id="line2d_20">
      <path d="M 39.330625 21.558281 
L 485.730625 21.558281 
" clip-path="url(#p6e771bb0d5)" style="fill: none; stroke-dasharray: 0.8,1.32; stroke-dashoffset: 0; stroke: #b0b0b0; stroke-opacity: 0.25; stroke-width: 0.8"/>
     </g>
     <g id="line2d_21">
      <g>
       <use xlink:href="#m78d966114c" x="39.330625" y="21.558281" style="stroke: #000000; stroke-width: 0.8"/>
      </g>
     </g>
     <g id="text_16">
      <!-- 50 -->
      <g transform="translate(20.878125 24.977578) scale(0.09 -0.09)">
       <defs>
        <path id="DejaVuSans-35" d="M 691 4666 
L 3169 4666 
L 3169 4134 
L 1269 4134 
L 1269 2991 
Q 1406 3038 1543 3061 
Q 1681 3084 1819 3084 
Q 2600 3084 3056 2656 
Q 3513 2228 3513 1497 
Q 3513 744 3044 326 
Q 2575 -91 1722 -91 
Q 1428 -91 1123 -41 
Q 819 9 494 109 
L 494 744 
Q 775 591 1075 516 
Q 1375 441 1709 441 
Q 2250 441 2565 725 
Q 2881 1009 2881 1497 
Q 2881 1984 2565 2268 
Q 2250 2553 1709 2553 
Q 1456 2553 1204 2497 
Q 953 2441 691 2322 
L 691 4666 
z
" transform="scale(0.015625)"/>
       </defs>
       <use xlink:href="#DejaVuSans-35"/>
       <use xlink:href="#DejaVuSans-30" transform="translate(63.623047 0)"/>
      </g>
     </g>
    </g>
    <g id="text_17">
     <!-- falsifier count -->
     <g transform="translate(14.798438 194.341875) rotate(-90) scale(0.1 -0.1)">
      <defs>
       <path id="DejaVuSans-66" d="M 2375 4863 
L 2375 4384 
L 1825 4384 
Q 1516 4384 1395 4259 
Q 1275 4134 1275 3809 
L 1275 3500 
L 2222 3500 
L 2222 3053 
L 1275 3053 
L 1275 0 
L 697 0 
L 697 3053 
L 147 3053 
L 147 3500 
L 697 3500 
L 697 3744 
Q 697 4328 969 4595 
Q 1241 4863 1831 4863 
L 2375 4863 
z
" transform="scale(0.015625)"/>
       <path id="DejaVuSans-75" d="M 544 1381 
L 544 3500 
L 1119 3500 
L 1119 1403 
Q 1119 906 1312 657 
Q 1506 409 1894 409 
Q 2359 409 2629 706 
Q 2900 1003 2900 1516 
L 2900 3500 
L 3475 3500 
L 3475 0 
L 2900 0 
L 2900 538 
Q 2691 219 2414 64 
Q 2138 -91 1772 -91 
Q 1169 -91 856 284 
Q 544 659 544 1381 
z
M 1991 3584 
L 1991 3584 
z
" transform="scale(0.015625)"/>
      </defs>
      <use xlink:href="#DejaVuSans-66"/>
      <use xlink:href="#DejaVuSans-61" transform="translate(35.205078 0)"/>
      <use xlink:href="#DejaVuSans-6c" transform="translate(96.484375 0)"/>
      <use xlink:href="#DejaVuSans-73" transform="translate(124.267578 0)"/>
      <use xlink:href="#DejaVuSans-69" transform="translate(176.367188 0)"/>
      <use xlink:href="#DejaVuSans-66" transform="translate(204.150391 0)"/>
      <use xlink:href="#DejaVuSans-69" transform="translate(239.355469 0)"/>
      <use xlink:href="#DejaVuSans-65" transform="translate(267.138672 0)"/>
      <use xlink:href="#DejaVuSans-72" transform="translate(328.662109 0)"/>
      <use xlink:href="#DejaVuSans-20" transform="translate(369.775391 0)"/>
      <use xlink:href="#DejaVuSans-63" transform="translate(401.5625 0)"/>
      <use xlink:href="#DejaVuSans-6f" transform="translate(456.542969 0)"/>
      <use xlink:href="#DejaVuSans-75" transform="translate(517.724609 0)"/>
      <use xlink:href="#DejaVuSans-6e" transform="translate(581.103516 0)"/>
      <use xlink:href="#DejaVuSans-74" transform="translate(644.482422 0)"/>
     </g>
    </g>
   </g>
   <g id="patch_21">
    <path d="M 39.330625 298.758281 
L 39.330625 21.558281 
" style="fill: none; stroke: #000000; stroke-width: 0.8; stroke-linejoin: miter; stroke-linecap: square"/>
   </g>
   <g id="patch_22">
    <path d="M 485.730625 298.758281 
L 485.730625 21.558281 
" style="fill: none; stroke: #000000; stroke-width: 0.8; stroke-linejoin: miter; stroke-linecap: square"/>
   </g>
   <g id="patch_23">
    <path d="M 39.330625 298.758281 
L 485.730625 298.758281 
" style="fill: none; stroke: #000000; stroke-width: 0.8; stroke-linejoin: miter; stroke-linecap: square"/>
   </g>
   <g id="patch_24">
    <path d="M 39.330625 21.558281 
L 485.730625 21.558281 
" style="fill: none; stroke: #000000; stroke-width: 0.8; stroke-linejoin: miter; stroke-linecap: square"/>
   </g>
   <g id="text_18">
    <!-- 45 -->
    <g transform="translate(72.977815 45.396931) scale(0.08 -0.08)">
     <use xlink:href="#DejaVuSans-34"/>
     <use xlink:href="#DejaVuSans-35" transform="translate(63.623047 0)"/>
    </g>
   </g>
   <g id="text_19">
    <!-- 31 -->
    <g transform="translate(119.093518 123.012931) scale(0.08 -0.08)">
     <use xlink:href="#DejaVuSans-33"/>
     <use xlink:href="#DejaVuSans-31" transform="translate(63.623047 0)"/>
    </g>
   </g>
   <g id="text_20">
    <!-- 22 -->
    <g transform="translate(165.20922 172.908931) scale(0.08 -0.08)">
     <use xlink:href="#DejaVuSans-32"/>
     <use xlink:href="#DejaVuSans-32" transform="translate(63.623047 0)"/>
    </g>
   </g>
   <g id="text_21">
    <!-- 22 -->
    <g transform="translate(211.324923 172.908931) scale(0.08 -0.08)">
     <use xlink:href="#DejaVuSans-32"/>
     <use xlink:href="#DejaVuSans-32" transform="translate(63.623047 0)"/>
    </g>
   </g>
   <g id="text_22">
    <!-- 15 -->
    <g transform="translate(257.440625 211.716931) scale(0.08 -0.08)">
     <use xlink:href="#DejaVuSans-31"/>
     <use xlink:href="#DejaVuSans-35" transform="translate(63.623047 0)"/>
    </g>
   </g>
   <g id="text_23">
    <!-- 9 -->
    <g transform="translate(306.101327 244.980931) scale(0.08 -0.08)">
     <defs>
      <path id="DejaVuSans-39" d="M 703 97 
L 703 672 
Q 941 559 1184 500 
Q 1428 441 1663 441 
Q 2288 441 2617 861 
Q 2947 1281 2994 2138 
Q 2813 1869 2534 1725 
Q 2256 1581 1919 1581 
Q 1219 1581 811 2004 
Q 403 2428 403 3163 
Q 403 3881 828 4315 
Q 1253 4750 1959 4750 
Q 2769 4750 3195 4129 
Q 3622 3509 3622 2328 
Q 3622 1225 3098 567 
Q 2575 -91 1691 -91 
Q 1453 -91 1209 -44 
Q 966 3 703 97 
z
M 1959 2075 
Q 2384 2075 2632 2365 
Q 2881 2656 2881 3163 
Q 2881 3666 2632 3958 
Q 2384 4250 1959 4250 
Q 1534 4250 1286 3958 
Q 1038 3666 1038 3163 
Q 1038 2656 1286 2365 
Q 1534 2075 1959 2075 
z
" transform="scale(0.015625)"/>
     </defs>
     <use xlink:href="#DejaVuSans-39"/>
    </g>
   </g>
   <g id="text_24">
    <!-- 9 -->
    <g transform="translate(352.21703 244.980931) scale(0.08 -0.08)">
     <use xlink:href="#DejaVuSans-39"/>
    </g>
   </g>
   <g id="text_25">
    <!-- 9 -->
    <g transform="translate(398.332732 244.980931) scale(0.08 -0.08)">
     <use xlink:href="#DejaVuSans-39"/>
    </g>
   </g>
   <g id="text_26">
    <!-- 6 -->
    <g transform="translate(444.448435 261.612931) scale(0.08 -0.08)">
     <defs>
      <path id="DejaVuSans-36" d="M 2113 2584 
Q 1688 2584 1439 2293 
Q 1191 2003 1191 1497 
Q 1191 994 1439 701 
Q 1688 409 2113 409 
Q 2538 409 2786 701 
Q 3034 994 3034 1497 
Q 3034 2003 2786 2293 
Q 2538 2584 2113 2584 
z
M 3366 4563 
L 3366 3988 
Q 3128 4100 2886 4159 
Q 2644 4219 2406 4219 
Q 1781 4219 1451 3797 
Q 1122 3375 1075 2522 
Q 1259 2794 1537 2939 
Q 1816 3084 2150 3084 
Q 2853 3084 3261 2657 
Q 3669 2231 3669 1497 
Q 3669 778 3244 343 
Q 2819 -91 2113 -91 
Q 1303 -91 875 529 
Q 447 1150 447 2328 
Q 447 3434 972 4092 
Q 1497 4750 2381 4750 
Q 2619 4750 2861 4703 
Q 3103 4656 3366 4563 
z
" transform="scale(0.015625)"/>
     </defs>
     <use xlink:href="#DejaVuSans-36"/>
    </g>
   </g>
   <g id="text_27">
    <!-- Falsifier registry distribution by atlas type and grade -->
    <g transform="translate(118.140156 15.558281) scale(0.11 -0.11)">
     <defs>
      <path id="DejaVuSans-67" d="M 2906 1791 
Q 2906 2416 2648 2759 
Q 2391 3103 1925 3103 
Q 1463 3103 1205 2759 
Q 947 2416 947 1791 
Q 947 1169 1205 825 
Q 1463 481 1925 481 
Q 2391 481 2648 825 
Q 2906 1169 2906 1791 
z
M 3481 434 
Q 3481 -459 3084 -895 
Q 2688 -1331 1869 -1331 
Q 1566 -1331 1297 -1286 
Q 1028 -1241 775 -1147 
L 775 -588 
Q 1028 -725 1275 -790 
Q 1522 -856 1778 -856 
Q 2344 -856 2625 -561 
Q 2906 -266 2906 331 
L 2906 616 
Q 2728 306 2450 153 
Q 2172 0 1784 0 
Q 1141 0 747 490 
Q 353 981 353 1791 
Q 353 2603 747 3093 
Q 1141 3584 1784 3584 
Q 2172 3584 2450 3431 
Q 2728 3278 2906 2969 
L 2906 3500 
L 3481 3500 
L 3481 434 
z
" transform="scale(0.015625)"/>
      <path id="DejaVuSans-62" d="M 3116 1747 
Q 3116 2381 2855 2742 
Q 2594 3103 2138 3103 
Q 1681 3103 1420 2742 
Q 1159 2381 1159 1747 
Q 1159 1113 1420 752 
Q 1681 391 2138 391 
Q 2594 391 2855 752 
Q 3116 1113 3116 1747 
z
M 1159 2969 
Q 1341 3281 1617 3432 
Q 1894 3584 2278 3584 
Q 2916 3584 3314 3078 
Q 3713 2572 3713 1747 
Q 3713 922 3314 415 
Q 2916 -91 2278 -91 
Q 1894 -91 1617 61 
Q 1341 213 1159 525 
L 1159 0 
L 581 0 
L 581 4863 
L 1159 4863 
L 1159 2969 
z
" transform="scale(0.015625)"/>
     </defs>
     <use xlink:href="#DejaVuSans-46"/>
     <use xlink:href="#DejaVuSans-61" transform="translate(48.394531 0)"/>
     <use xlink:href="#DejaVuSans-6c" transform="translate(109.673828 0)"/>
     <use xlink:href="#DejaVuSans-73" transform="translate(137.457031 0)"/>
     <use xlink:href="#DejaVuSans-69" transform="translate(189.556641 0)"/>
     <use xlink:href="#DejaVuSans-66" transform="translate(217.339844 0)"/>
     <use xlink:href="#DejaVuSans-69" transform="translate(252.544922 0)"/>
     <use xlink:href="#DejaVuSans-65" transform="translate(280.328125 0)"/>
     <use xlink:href="#DejaVuSans-72" transform="translate(341.851562 0)"/>
     <use xlink:href="#DejaVuSans-20" transform="translate(382.964844 0)"/>
     <use xlink:href="#DejaVuSans-72" transform="translate(414.751953 0)"/>
     <use xlink:href="#DejaVuSans-65" transform="translate(453.615234 0)"/>
     <use xlink:href="#DejaVuSans-67" transform="translate(515.138672 0)"/>
     <use xlink:href="#DejaVuSans-69" transform="translate(578.615234 0)"/>
     <use xlink:href="#DejaVuSans-73" transform="translate(606.398438 0)"/>
     <use xlink:href="#DejaVuSans-74" transform="translate(658.498047 0)"/>
     <use xlink:href="#DejaVuSans-72" transform="translate(697.707031 0)"/>
     <use xlink:href="#DejaVuSans-79" transform="translate(738.820312 0)"/>
     <use xlink:href="#DejaVuSans-20" transform="translate(798 0)"/>
     <use xlink:href="#DejaVuSans-64" transform="translate(829.787109 0)"/>
     <use xlink:href="#DejaVuSans-69" transform="translate(893.263672 0)"/>
     <use xlink:href="#DejaVuSans-73" transform="translate(921.046875 0)"/>
     <use xlink:href="#DejaVuSans-74" transform="translate(973.146484 0)"/>
     <use xlink:href="#DejaVuSans-72" transform="translate(1012.355469 0)"/>
     <use xlink:href="#DejaVuSans-69" transform="translate(1053.46875 0)"/>
     <use xlink:href="#DejaVuSans-62" transform="translate(1081.251953 0)"/>
     <use xlink:href="#DejaVuSans-75" transform="translate(1144.728516 0)"/>
     <use xlink:href="#DejaVuSans-74" transform="translate(1208.107422 0)"/>
     <use xlink:href="#DejaVuSans-69" transform="translate(1247.316406 0)"/>
     <use xlink:href="#DejaVuSans-6f" transform="translate(1275.099609 0)"/>
     <use xlink:href="#DejaVuSans-6e" transform="translate(1336.28125 0)"/>
     <use xlink:href="#DejaVuSans-20" transform="translate(1399.660156 0)"/>
     <use xlink:href="#DejaVuSans-62" transform="translate(1431.447266 0)"/>
     <use xlink:href="#DejaVuSans-79" transform="translate(1494.923828 0)"/>
     <use xlink:href="#DejaVuSans-20" transform="translate(1554.103516 0)"/>
     <use xlink:href="#DejaVuSans-61" transform="translate(1585.890625 0)"/>
     <use xlink:href="#DejaVuSans-74" transform="translate(1647.169922 0)"/>
     <use xlink:href="#DejaVuSans-6c" transform="translate(1686.378906 0)"/>
     <use xlink:href="#DejaVuSans-61" transform="translate(1714.162109 0)"/>
     <use xlink:href="#DejaVuSans-73" transform="translate(1775.441406 0)"/>
     <use xlink:href="#DejaVuSans-20" transform="translate(1827.541016 0)"/>
     <use xlink:href="#DejaVuSans-74" transform="translate(1859.328125 0)"/>
     <use xlink:href="#DejaVuSans-79" transform="translate(1898.537109 0)"/>
     <use xlink:href="#DejaVuSans-70" transform="translate(1957.716797 0)"/>
     <use xlink:href="#DejaVuSans-65" transform="translate(2021.193359 0)"/>
     <use xlink:href="#DejaVuSans-20" transform="translate(2082.716797 0)"/>
     <use xlink:href="#DejaVuSans-61" transform="translate(2114.503906 0)"/>
     <use xlink:href="#DejaVuSans-6e" transform="translate(2175.783203 0)"/>
     <use xlink:href="#DejaVuSans-64" transform="translate(2239.162109 0)"/>
     <use xlink:href="#DejaVuSans-20" transform="translate(2302.638672 0)"/>
     <use xlink:href="#DejaVuSans-67" transform="translate(2334.425781 0)"/>
     <use xlink:href="#DejaVuSans-72" transform="translate(2397.902344 0)"/>
     <use xlink:href="#DejaVuSans-61" transform="translate(2439.015625 0)"/>
     <use xlink:href="#DejaVuSans-64" transform="translate(2500.294922 0)"/>
     <use xlink:href="#DejaVuSans-65" transform="translate(2563.771484 0)"/>
    </g>
   </g>
   <g id="legend_1">
    <g id="patch_25">
     <path d="M 348.473594 36.496875 
L 366.473594 36.496875 
L 366.473594 30.196875 
L 348.473594 30.196875 
z
" style="fill: #4878a6; stroke: #000000; stroke-width: 0.4; stroke-linejoin: miter"/>
    </g>
    <g id="text_28">
     <!-- [10] baseline -->
     <g transform="translate(373.673594 36.496875) scale(0.09 -0.09)">
      <defs>
       <path id="DejaVuSans-5b" d="M 550 4863 
L 1875 4863 
L 1875 4416 
L 1125 4416 
L 1125 -397 
L 1875 -397 
L 1875 -844 
L 550 -844 
L 550 4863 
z
" transform="scale(0.015625)"/>
       <path id="DejaVuSans-5d" d="M 1947 4863 
L 1947 -844 
L 622 -844 
L 622 -397 
L 1369 -397 
L 1369 4416 
L 622 4416 
L 622 4863 
L 1947 4863 
z
" transform="scale(0.015625)"/>
      </defs>
      <use xlink:href="#DejaVuSans-5b"/>
      <use xlink:href="#DejaVuSans-31" transform="translate(39.013672 0)"/>
      <use xlink:href="#DejaVuSans-30" transform="translate(102.636719 0)"/>
      <use xlink:href="#DejaVuSans-5d" transform="translate(166.259766 0)"/>
      <use xlink:href="#DejaVuSans-20" transform="translate(205.273438 0)"/>
      <use xlink:href="#DejaVuSans-62" transform="translate(237.060547 0)"/>
      <use xlink:href="#DejaVuSans-61" transform="translate(300.537109 0)"/>
      <use xlink:href="#DejaVuSans-73" transform="translate(361.816406 0)"/>
      <use xlink:href="#DejaVuSans-65" transform="translate(413.916016 0)"/>
      <use xlink:href="#DejaVuSans-6c" transform="translate(475.439453 0)"/>
      <use xlink:href="#DejaVuSans-69" transform="translate(503.222656 0)"/>
      <use xlink:href="#DejaVuSans-6e" transform="translate(531.005859 0)"/>
      <use xlink:href="#DejaVuSans-65" transform="translate(594.384766 0)"/>
     </g>
    </g>
    <g id="patch_26">
     <path d="M 348.473594 49.707187 
L 366.473594 49.707187 
L 366.473594 43.407187 
L 348.473594 43.407187 
z
" style="fill: #d65f5f; stroke: #000000; stroke-width: 0.4; stroke-linejoin: miter"/>
    </g>
    <g id="text_29">
     <!-- [11] strict load-bearing -->
     <g transform="translate(373.673594 49.707187) scale(0.09 -0.09)">
      <defs>
       <path id="DejaVuSans-2d" d="M 313 2009 
L 1997 2009 
L 1997 1497 
L 313 1497 
L 313 2009 
z
" transform="scale(0.015625)"/>
      </defs>
      <use xlink:href="#DejaVuSans-5b"/>
      <use xlink:href="#DejaVuSans-31" transform="translate(39.013672 0)"/>
      <use xlink:href="#DejaVuSans-31" transform="translate(102.636719 0)"/>
      <use xlink:href="#DejaVuSans-5d" transform="translate(166.259766 0)"/>
      <use xlink:href="#DejaVuSans-20" transform="translate(205.273438 0)"/>
      <use xlink:href="#DejaVuSans-73" transform="translate(237.060547 0)"/>
      <use xlink:href="#DejaVuSans-74" transform="translate(289.160156 0)"/>
      <use xlink:href="#DejaVuSans-72" transform="translate(328.369141 0)"/>
      <use xlink:href="#DejaVuSans-69" transform="translate(369.482422 0)"/>
      <use xlink:href="#DejaVuSans-63" transform="translate(397.265625 0)"/>
      <use xlink:href="#DejaVuSans-74" transform="translate(452.246094 0)"/>
      <use xlink:href="#DejaVuSans-20" transform="translate(491.455078 0)"/>
      <use xlink:href="#DejaVuSans-6c" transform="translate(523.242188 0)"/>
      <use xlink:href="#DejaVuSans-6f" transform="translate(551.025391 0)"/>
      <use xlink:href="#DejaVuSans-61" transform="translate(612.207031 0)"/>
      <use xlink:href="#DejaVuSans-64" transform="translate(673.486328 0)"/>
      <use xlink:href="#DejaVuSans-2d" transform="translate(736.962891 0)"/>
      <use xlink:href="#DejaVuSans-62" transform="translate(773.046875 0)"/>
      <use xlink:href="#DejaVuSans-65" transform="translate(836.523438 0)"/>
      <use xlink:href="#DejaVuSans-61" transform="translate(898.046875 0)"/>
      <use xlink:href="#DejaVuSans-72" transform="translate(959.326172 0)"/>
      <use xlink:href="#DejaVuSans-69" transform="translate(1000.439453 0)"/>
      <use xlink:href="#DejaVuSans-6e" transform="translate(1028.222656 0)"/>
      <use xlink:href="#DejaVuSans-67" transform="translate(1091.601562 0)"/>
     </g>
    </g>
   </g>
  </g>
  <g id="text_30">
   <!-- 168 entries / per-type [10]/[11] split per PAPER_FIGURES_PLAN.md Fig 1 -->
   <g transform="translate(110.815625 345.558281) scale(0.08 -0.08)">
    <defs>
     <path id="DejaVuSans-Oblique-31" d="M 416 531 
L 1447 531 
L 2144 4122 
L 978 3897 
L 1088 4441 
L 2247 4666 
L 2881 4666 
L 2075 531 
L 3103 531 
L 3003 0 
L 313 0 
L 416 531 
z
" transform="scale(0.015625)"/>
     <path id="DejaVuSans-Oblique-36" d="M 2938 1728 
Q 2938 2125 2734 2354 
Q 2531 2584 2181 2584 
Q 1697 2584 1367 2211 
Q 1038 1838 1038 1288 
Q 1038 875 1239 642 
Q 1441 409 1797 409 
Q 2284 409 2611 792 
Q 2938 1175 2938 1728 
z
M 3788 4556 
L 3681 3981 
Q 3500 4100 3265 4162 
Q 3031 4225 2766 4225 
Q 2119 4225 1726 3819 
Q 1334 3413 1141 2547 
Q 1369 2813 1670 2948 
Q 1972 3084 2322 3084 
Q 2894 3084 3233 2754 
Q 3572 2425 3572 1869 
Q 3572 1413 3405 1020 
Q 3238 628 2919 331 
Q 2700 128 2409 18 
Q 2119 -91 1791 -91 
Q 1147 -91 775 318 
Q 403 728 403 1441 
Q 403 2103 573 2717 
Q 744 3331 1050 3781 
Q 1372 4256 1830 4503 
Q 2288 4750 2841 4750 
Q 3084 4750 3321 4701 
Q 3559 4653 3788 4556 
z
" transform="scale(0.015625)"/>
     <path id="DejaVuSans-Oblique-38" d="M 2847 1416 
Q 2847 1769 2600 1992 
Q 2353 2216 1953 2216 
Q 1466 2216 1148 1923 
Q 831 1631 831 1184 
Q 831 828 1073 618 
Q 1316 409 1728 409 
Q 2219 409 2533 693 
Q 2847 978 2847 1416 
z
M 3169 3591 
Q 3169 3888 2950 4069 
Q 2731 4250 2369 4250 
Q 1941 4250 1664 4009 
Q 1388 3769 1388 3406 
Q 1388 3094 1605 2903 
Q 1822 2713 2181 2713 
Q 2613 2713 2891 2961 
Q 3169 3209 3169 3591 
z
M 2741 2456 
Q 3094 2322 3281 2050 
Q 3469 1778 3469 1394 
Q 3469 747 2969 328 
Q 2469 -91 1678 -91 
Q 1006 -91 609 239 
Q 213 569 213 1119 
Q 213 1619 553 2008 
Q 894 2397 1441 2503 
Q 1113 2616 941 2852 
Q 769 3088 769 3425 
Q 769 3991 1239 4370 
Q 1709 4750 2431 4750 
Q 3034 4750 3414 4442 
Q 3794 4134 3794 3659 
Q 3794 3247 3511 2923 
Q 3228 2600 2741 2456 
z
" transform="scale(0.015625)"/>
     <path id="DejaVuSans-Oblique-20" transform="scale(0.015625)"/>
     <path id="DejaVuSans-Oblique-65" d="M 3078 2063 
Q 3088 2113 3092 2166 
Q 3097 2219 3097 2272 
Q 3097 2653 2873 2875 
Q 2650 3097 2266 3097 
Q 1838 3097 1509 2826 
Q 1181 2556 1013 2059 
L 3078 2063 
z
M 3578 1613 
L 903 1613 
Q 884 1494 878 1425 
Q 872 1356 872 1306 
Q 872 872 1139 634 
Q 1406 397 1894 397 
Q 2269 397 2603 481 
Q 2938 566 3225 728 
L 3116 159 
Q 2806 34 2476 -28 
Q 2147 -91 1806 -91 
Q 1078 -91 686 257 
Q 294 606 294 1247 
Q 294 1794 489 2264 
Q 684 2734 1063 3103 
Q 1306 3334 1642 3459 
Q 1978 3584 2356 3584 
Q 2950 3584 3301 3228 
Q 3653 2872 3653 2272 
Q 3653 2128 3634 1964 
Q 3616 1800 3578 1613 
z
" transform="scale(0.015625)"/>
     <path id="DejaVuSans-Oblique-6e" d="M 3566 2113 
L 3156 0 
L 2578 0 
L 2988 2091 
Q 3016 2238 3031 2350 
Q 3047 2463 3047 2528 
Q 3047 2791 2881 2937 
Q 2716 3084 2419 3084 
Q 1956 3084 1622 2776 
Q 1288 2469 1184 1941 
L 800 0 
L 225 0 
L 903 3500 
L 1478 3500 
L 1363 2950 
Q 1603 3253 1940 3418 
Q 2278 3584 2650 3584 
Q 3113 3584 3367 3334 
Q 3622 3084 3622 2631 
Q 3622 2519 3608 2391 
Q 3594 2263 3566 2113 
z
" transform="scale(0.015625)"/>
     <path id="DejaVuSans-Oblique-74" d="M 2706 3500 
L 2619 3053 
L 1472 3053 
L 1100 1153 
Q 1081 1047 1072 975 
Q 1063 903 1063 863 
Q 1063 663 1183 572 
Q 1303 481 1569 481 
L 2150 481 
L 2053 0 
L 1503 0 
Q 991 0 739 200 
Q 488 400 488 806 
Q 488 878 497 964 
Q 506 1050 525 1153 
L 897 3053 
L 409 3053 
L 500 3500 
L 978 3500 
L 1172 4494 
L 1747 4494 
L 1556 3500 
L 2706 3500 
z
" transform="scale(0.015625)"/>
     <path id="DejaVuSans-Oblique-72" d="M 2853 2969 
Q 2766 3016 2653 3041 
Q 2541 3066 2413 3066 
Q 1953 3066 1609 2717 
Q 1266 2369 1153 1784 
L 800 0 
L 225 0 
L 909 3500 
L 1484 3500 
L 1375 2956 
Q 1603 3259 1920 3421 
Q 2238 3584 2597 3584 
Q 2691 3584 2781 3573 
Q 2872 3563 2963 3538 
L 2853 2969 
z
" transform="scale(0.015625)"/>
     <path id="DejaVuSans-Oblique-69" d="M 1172 4863 
L 1747 4863 
L 1606 4134 
L 1031 4134 
L 1172 4863 
z
M 909 3500 
L 1484 3500 
L 800 0 
L 225 0 
L 909 3500 
z
" transform="scale(0.015625)"/>
     <path id="DejaVuSans-Oblique-73" d="M 3200 3397 
L 3091 2853 
Q 2863 2978 2609 3040 
Q 2356 3103 2088 3103 
Q 1634 3103 1373 2948 
Q 1113 2794 1113 2528 
Q 1113 2219 1719 2053 
Q 1766 2041 1788 2034 
L 1972 1978 
Q 2547 1819 2739 1644 
Q 2931 1469 2931 1166 
Q 2931 609 2489 259 
Q 2047 -91 1331 -91 
Q 1053 -91 747 -37 
Q 441 16 72 128 
L 184 722 
Q 500 559 806 475 
Q 1113 391 1394 391 
Q 1816 391 2080 572 
Q 2344 753 2344 1031 
Q 2344 1331 1650 1516 
L 1591 1531 
L 1394 1581 
Q 956 1697 753 1886 
Q 550 2075 550 2369 
Q 550 2928 970 3256 
Q 1391 3584 2113 3584 
Q 2397 3584 2667 3537 
Q 2938 3491 3200 3397 
z
" transform="scale(0.015625)"/>
     <path id="DejaVuSans-Oblique-2f" d="M 2175 4666 
L 2731 4666 
L 84 -594 
L -469 -594 
L 2175 4666 
z
" transform="scale(0.015625)"/>
     <path id="DejaVuSans-Oblique-70" d="M 3175 2156 
Q 3175 2616 2975 2859 
Q 2775 3103 2400 3103 
Q 2144 3103 1911 2972 
Q 1678 2841 1497 2591 
Q 1319 2344 1212 1994 
Q 1106 1644 1106 1300 
Q 1106 863 1306 627 
Q 1506 391 1875 391 
Q 2147 391 2380 519 
Q 2613 647 2778 891 
Q 2956 1147 3065 1494 
Q 3175 1841 3175 2156 
z
M 1394 2969 
Q 1625 3272 1939 3428 
Q 2253 3584 2638 3584 
Q 3175 3584 3472 3232 
Q 3769 2881 3769 2247 
Q 3769 1728 3584 1258 
Q 3400 788 3053 416 
Q 2822 169 2531 39 
Q 2241 -91 1919 -91 
Q 1547 -91 1294 64 
Q 1041 219 916 525 
L 556 -1331 
L -19 -1331 
L 922 3500 
L 1497 3500 
L 1394 2969 
z
" transform="scale(0.015625)"/>
     <path id="DejaVuSans-Oblique-2d" d="M 391 2009 
L 2075 2009 
L 1978 1497 
L 288 1497 
L 391 2009 
z
" transform="scale(0.015625)"/>
     <path id="DejaVuSans-Oblique-79" d="M 1588 -325 
Q 1188 -997 936 -1164 
Q 684 -1331 294 -1331 
L -159 -1331 
L -63 -850 
L 269 -850 
Q 509 -850 678 -719 
Q 847 -588 1056 -206 
L 1234 128 
L 459 3500 
L 1069 3500 
L 1650 819 
L 3256 3500 
L 3859 3500 
L 1588 -325 
z
" transform="scale(0.015625)"/>
     <path id="DejaVuSans-Oblique-5b" d="M 1363 4863 
L 2688 4863 
L 2597 4416 
L 1850 4416 
L 916 -397 
L 1663 -397 
L 1581 -844 
L 256 -844 
L 1363 4863 
z
" transform="scale(0.015625)"/>
     <path id="DejaVuSans-Oblique-30" d="M 2444 4750 
Q 3078 4750 3414 4328 
Q 3750 3906 3750 3116 
Q 3750 2516 3592 1923 
Q 3434 1331 3150 863 
Q 2859 394 2467 151 
Q 2075 -91 1600 -91 
Q 988 -91 653 334 
Q 319 759 319 1544 
Q 319 2138 480 2733 
Q 641 3328 928 3794 
Q 1216 4263 1602 4506 
Q 1988 4750 2444 4750 
z
M 2406 4250 
Q 2169 4250 1955 4123 
Q 1741 3997 1569 3750 
Q 1281 3338 1111 2720 
Q 941 2103 941 1453 
Q 941 938 1123 673 
Q 1306 409 1663 409 
Q 1913 409 2125 536 
Q 2338 663 2509 909 
Q 2794 1319 2961 1936 
Q 3128 2553 3128 3206 
Q 3128 3722 2945 3986 
Q 2763 4250 2406 4250 
z
" transform="scale(0.015625)"/>
     <path id="DejaVuSans-Oblique-5d" d="M 2188 4863 
L 1081 -844 
L -244 -844 
L -159 -397 
L 588 -397 
L 1522 4416 
L 781 4416 
L 863 4863 
L 2188 4863 
z
" transform="scale(0.015625)"/>
     <path id="DejaVuSans-Oblique-6c" d="M 1172 4863 
L 1747 4863 
L 800 0 
L 225 0 
L 1172 4863 
z
" transform="scale(0.015625)"/>
     <path id="DejaVuSans-Oblique-50" d="M 1081 4666 
L 2541 4666 
Q 3178 4666 3512 4369 
Q 3847 4072 3847 3500 
Q 3847 2731 3353 2303 
Q 2859 1875 1966 1875 
L 1172 1875 
L 806 0 
L 172 0 
L 1081 4666 
z
M 1613 4147 
L 1275 2394 
L 2069 2394 
Q 2606 2394 2893 2669 
Q 3181 2944 3181 3456 
Q 3181 3784 2986 3965 
Q 2791 4147 2438 4147 
L 1613 4147 
z
" transform="scale(0.015625)"/>
     <path id="DejaVuSans-Oblique-41" d="M 2356 4666 
L 3072 4666 
L 3938 0 
L 3278 0 
L 3084 1197 
L 984 1197 
L 325 0 
L -341 0 
L 2356 4666 
z
M 2584 4044 
L 1275 1722 
L 2988 1722 
L 2584 4044 
z
" transform="scale(0.015625)"/>
     <path id="DejaVuSans-Oblique-45" d="M 1081 4666 
L 4031 4666 
L 3928 4134 
L 1606 4134 
L 1338 2753 
L 3566 2753 
L 3463 2222 
L 1234 2222 
L 909 531 
L 3284 531 
L 3181 0 
L 172 0 
L 1081 4666 
z
" transform="scale(0.015625)"/>
     <path id="DejaVuSans-Oblique-52" d="M 1613 4147 
L 1294 2491 
L 2106 2491 
Q 2584 2491 2879 2755 
Q 3175 3019 3175 3444 
Q 3175 3784 2976 3965 
Q 2778 4147 2406 4147 
L 1613 4147 
z
M 2772 2241 
Q 2972 2194 3105 2009 
Q 3238 1825 3413 1275 
L 3809 0 
L 3144 0 
L 2778 1197 
Q 2638 1659 2453 1815 
Q 2269 1972 1888 1972 
L 1191 1972 
L 806 0 
L 172 0 
L 1081 4666 
L 2503 4666 
Q 3150 4666 3495 4373 
Q 3841 4081 3841 3531 
Q 3841 3044 3547 2687 
Q 3253 2331 2772 2241 
z
" transform="scale(0.015625)"/>
     <path id="DejaVuSans-Oblique-5f" d="M 3263 -1063 
L 3263 -1509 
L -63 -1509 
L -63 -1063 
L 3263 -1063 
z
" transform="scale(0.015625)"/>
     <path id="DejaVuSans-Oblique-46" d="M 1081 4666 
L 3756 4666 
L 3653 4134 
L 1606 4134 
L 1338 2759 
L 3188 2759 
L 3084 2228 
L 1234 2228 
L 800 0 
L 172 0 
L 1081 4666 
z
" transform="scale(0.015625)"/>
     <path id="DejaVuSans-Oblique-49" d="M 1081 4666 
L 1716 4666 
L 806 0 
L 172 0 
L 1081 4666 
z
" transform="scale(0.015625)"/>
     <path id="DejaVuSans-Oblique-47" d="M 3494 697 
L 3738 1919 
L 2700 1919 
L 2797 2438 
L 4453 2438 
L 4050 384 
Q 3634 156 3143 32 
Q 2653 -91 2156 -91 
Q 1278 -91 783 396 
Q 288 884 288 1753 
Q 288 2475 589 3126 
Q 891 3778 1422 4213 
Q 1756 4484 2153 4617 
Q 2550 4750 3034 4750 
Q 3472 4750 3873 4639 
Q 4275 4528 4641 4306 
L 4513 3634 
Q 4231 3928 3853 4083 
Q 3475 4238 3047 4238 
Q 2550 4238 2172 4048 
Q 1794 3859 1497 3463 
Q 1244 3125 1098 2667 
Q 953 2209 953 1734 
Q 953 1081 1287 751 
Q 1622 422 2284 422 
Q 2616 422 2925 492 
Q 3234 563 3494 697 
z
" transform="scale(0.015625)"/>
     <path id="DejaVuSans-Oblique-55" d="M 991 4666 
L 1625 4666 
L 1075 1831 
Q 1041 1641 1027 1517 
Q 1013 1394 1013 1300 
Q 1013 869 1253 645 
Q 1494 422 1959 422 
Q 2563 422 2898 753 
Q 3234 1084 3378 1831 
L 3928 4666 
L 4563 4666 
L 4000 1753 
Q 3816 809 3300 359 
Q 2784 -91 1888 -91 
Q 1188 -91 780 261 
Q 372 613 372 1216 
Q 372 1325 387 1461 
Q 403 1597 434 1753 
L 991 4666 
z
" transform="scale(0.015625)"/>
     <path id="DejaVuSans-Oblique-53" d="M 3859 4513 
L 3738 3897 
Q 3422 4066 3111 4152 
Q 2800 4238 2509 4238 
Q 1944 4238 1609 3991 
Q 1275 3744 1275 3334 
Q 1275 3109 1398 2989 
Q 1522 2869 2034 2731 
L 2413 2638 
Q 3053 2472 3303 2217 
Q 3553 1963 3553 1503 
Q 3553 797 2998 353 
Q 2444 -91 1538 -91 
Q 1166 -91 791 -17 
Q 416 56 38 206 
L 166 856 
Q 513 641 861 531 
Q 1209 422 1556 422 
Q 2147 422 2503 684 
Q 2859 947 2859 1369 
Q 2859 1650 2717 1795 
Q 2575 1941 2106 2059 
L 1728 2156 
Q 1081 2325 845 2545 
Q 609 2766 609 3163 
Q 609 3859 1145 4304 
Q 1681 4750 2541 4750 
Q 2875 4750 3203 4690 
Q 3531 4631 3859 4513 
z
" transform="scale(0.015625)"/>
     <path id="DejaVuSans-Oblique-4c" d="M 1075 4666 
L 1709 4666 
L 909 525 
L 3181 525 
L 3078 0 
L 172 0 
L 1075 4666 
z
" transform="scale(0.015625)"/>
     <path id="DejaVuSans-Oblique-4e" d="M 1081 4666 
L 1931 4666 
L 3219 666 
L 4000 4666 
L 4616 4666 
L 3706 0 
L 2853 0 
L 1569 4025 
L 788 0 
L 172 0 
L 1081 4666 
z
" transform="scale(0.015625)"/>
     <path id="DejaVuSans-Oblique-2e" d="M 525 794 
L 1184 794 
L 1031 0 
L 372 0 
L 525 794 
z
" transform="scale(0.015625)"/>
     <path id="DejaVuSans-Oblique-6d" d="M 5747 2113 
L 5338 0 
L 4763 0 
L 5166 2094 
Q 5191 2228 5203 2325 
Q 5216 2422 5216 2491 
Q 5216 2772 5059 2928 
Q 4903 3084 4622 3084 
Q 4203 3084 3875 2770 
Q 3547 2456 3450 1953 
L 3066 0 
L 2491 0 
L 2900 2094 
Q 2925 2209 2937 2307 
Q 2950 2406 2950 2484 
Q 2950 2769 2794 2926 
Q 2638 3084 2363 3084 
Q 1938 3084 1609 2770 
Q 1281 2456 1184 1953 
L 800 0 
L 225 0 
L 909 3500 
L 1484 3500 
L 1375 2956 
Q 1609 3263 1923 3423 
Q 2238 3584 2597 3584 
Q 2978 3584 3223 3384 
Q 3469 3184 3519 2828 
Q 3781 3197 4126 3390 
Q 4472 3584 4856 3584 
Q 5306 3584 5551 3325 
Q 5797 3066 5797 2591 
Q 5797 2488 5784 2364 
Q 5772 2241 5747 2113 
z
" transform="scale(0.015625)"/>
     <path id="DejaVuSans-Oblique-64" d="M 2675 525 
Q 2444 222 2128 65 
Q 1813 -91 1428 -91 
Q 903 -91 598 267 
Q 294 625 294 1247 
Q 294 1766 478 2236 
Q 663 2706 1013 3078 
Q 1244 3325 1534 3454 
Q 1825 3584 2144 3584 
Q 2481 3584 2739 3421 
Q 2997 3259 3138 2956 
L 3513 4863 
L 4091 4863 
L 3144 0 
L 2566 0 
L 2675 525 
z
M 891 1350 
Q 891 897 1095 644 
Q 1300 391 1663 391 
Q 1931 391 2161 520 
Q 2391 650 2566 903 
Q 2750 1166 2856 1509 
Q 2963 1853 2963 2188 
Q 2963 2622 2758 2865 
Q 2553 3109 2194 3109 
Q 1922 3109 1687 2981 
Q 1453 2853 1288 2613 
Q 1106 2353 998 2009 
Q 891 1666 891 1350 
z
" transform="scale(0.015625)"/>
     <path id="DejaVuSans-Oblique-67" d="M 3816 3500 
L 3219 434 
Q 3047 -456 2561 -893 
Q 2075 -1331 1253 -1331 
Q 950 -1331 690 -1286 
Q 431 -1241 206 -1147 
L 313 -588 
Q 525 -725 762 -790 
Q 1000 -856 1269 -856 
Q 1816 -856 2167 -557 
Q 2519 -259 2631 300 
L 2681 563 
Q 2441 288 2122 144 
Q 1803 0 1434 0 
Q 903 0 598 351 
Q 294 703 294 1319 
Q 294 1803 478 2267 
Q 663 2731 997 3091 
Q 1219 3328 1514 3456 
Q 1809 3584 2131 3584 
Q 2484 3584 2746 3420 
Q 3009 3256 3138 2956 
L 3238 3500 
L 3816 3500 
z
M 2950 2216 
Q 2950 2641 2750 2872 
Q 2550 3103 2181 3103 
Q 1953 3103 1747 3012 
Q 1541 2922 1394 2759 
Q 1156 2491 1023 2127 
Q 891 1763 891 1375 
Q 891 944 1092 712 
Q 1294 481 1672 481 
Q 2219 481 2584 976 
Q 2950 1472 2950 2216 
z
" transform="scale(0.015625)"/>
    </defs>
    <use xlink:href="#DejaVuSans-Oblique-31"/>
    <use xlink:href="#DejaVuSans-Oblique-36" transform="translate(63.623047 0)"/>
    <use xlink:href="#DejaVuSans-Oblique-38" transform="translate(127.246094 0)"/>
    <use xlink:href="#DejaVuSans-Oblique-20" transform="translate(190.869141 0)"/>
    <use xlink:href="#DejaVuSans-Oblique-65" transform="translate(222.65625 0)"/>
    <use xlink:href="#DejaVuSans-Oblique-6e" transform="translate(284.179688 0)"/>
    <use xlink:href="#DejaVuSans-Oblique-74" transform="translate(347.558594 0)"/>
    <use xlink:href="#DejaVuSans-Oblique-72" transform="translate(386.767578 0)"/>
    <use xlink:href="#DejaVuSans-Oblique-69" transform="translate(427.880859 0)"/>
    <use xlink:href="#DejaVuSans-Oblique-65" transform="translate(455.664062 0)"/>
    <use xlink:href="#DejaVuSans-Oblique-73" transform="translate(517.1875 0)"/>
    <use xlink:href="#DejaVuSans-Oblique-20" transform="translate(569.287109 0)"/>
    <use xlink:href="#DejaVuSans-Oblique-2f" transform="translate(601.074219 0)"/>
    <use xlink:href="#DejaVuSans-Oblique-20" transform="translate(634.765625 0)"/>
    <use xlink:href="#DejaVuSans-Oblique-70" transform="translate(666.552734 0)"/>
    <use xlink:href="#DejaVuSans-Oblique-65" transform="translate(730.029297 0)"/>
    <use xlink:href="#DejaVuSans-Oblique-72" transform="translate(791.552734 0)"/>
    <use xlink:href="#DejaVuSans-Oblique-2d" transform="translate(827.166016 0)"/>
    <use xlink:href="#DejaVuSans-Oblique-74" transform="translate(863.25 0)"/>
    <use xlink:href="#DejaVuSans-Oblique-79" transform="translate(902.458984 0)"/>
    <use xlink:href="#DejaVuSans-Oblique-70" transform="translate(961.638672 0)"/>
    <use xlink:href="#DejaVuSans-Oblique-65" transform="translate(1025.115234 0)"/>
    <use xlink:href="#DejaVuSans-Oblique-20" transform="translate(1086.638672 0)"/>
    <use xlink:href="#DejaVuSans-Oblique-5b" transform="translate(1118.425781 0)"/>
    <use xlink:href="#DejaVuSans-Oblique-31" transform="translate(1157.439453 0)"/>
    <use xlink:href="#DejaVuSans-Oblique-30" transform="translate(1221.0625 0)"/>
    <use xlink:href="#DejaVuSans-Oblique-5d" transform="translate(1284.685547 0)"/>
    <use xlink:href="#DejaVuSans-Oblique-2f" transform="translate(1323.699219 0)"/>
    <use xlink:href="#DejaVuSans-Oblique-5b" transform="translate(1357.390625 0)"/>
    <use xlink:href="#DejaVuSans-Oblique-31" transform="translate(1396.404297 0)"/>
    <use xlink:href="#DejaVuSans-Oblique-31" transform="translate(1460.027344 0)"/>
    <use xlink:href="#DejaVuSans-Oblique-5d" transform="translate(1523.650391 0)"/>
    <use xlink:href="#DejaVuSans-Oblique-20" transform="translate(1562.664062 0)"/>
    <use xlink:href="#DejaVuSans-Oblique-73" transform="translate(1594.451172 0)"/>
    <use xlink:href="#DejaVuSans-Oblique-70" transform="translate(1646.550781 0)"/>
    <use xlink:href="#DejaVuSans-Oblique-6c" transform="translate(1710.027344 0)"/>
    <use xlink:href="#DejaVuSans-Oblique-69" transform="translate(1737.810547 0)"/>
    <use xlink:href="#DejaVuSans-Oblique-74" transform="translate(1765.59375 0)"/>
    <use xlink:href="#DejaVuSans-Oblique-20" transform="translate(1804.802734 0)"/>
    <use xlink:href="#DejaVuSans-Oblique-70" transform="translate(1836.589844 0)"/>
    <use xlink:href="#DejaVuSans-Oblique-65" transform="translate(1900.066406 0)"/>
    <use xlink:href="#DejaVuSans-Oblique-72" transform="translate(1961.589844 0)"/>
    <use xlink:href="#DejaVuSans-Oblique-20" transform="translate(2002.703125 0)"/>
    <use xlink:href="#DejaVuSans-Oblique-50" transform="translate(2034.490234 0)"/>
    <use xlink:href="#DejaVuSans-Oblique-41" transform="translate(2089.792969 0)"/>
    <use xlink:href="#DejaVuSans-Oblique-50" transform="translate(2158.201172 0)"/>
    <use xlink:href="#DejaVuSans-Oblique-45" transform="translate(2218.503906 0)"/>
    <use xlink:href="#DejaVuSans-Oblique-52" transform="translate(2281.6875 0)"/>
    <use xlink:href="#DejaVuSans-Oblique-5f" transform="translate(2351.169922 0)"/>
    <use xlink:href="#DejaVuSans-Oblique-46" transform="translate(2401.169922 0)"/>
    <use xlink:href="#DejaVuSans-Oblique-49" transform="translate(2458.689453 0)"/>
    <use xlink:href="#DejaVuSans-Oblique-47" transform="translate(2488.181641 0)"/>
    <use xlink:href="#DejaVuSans-Oblique-55" transform="translate(2565.671875 0)"/>
    <use xlink:href="#DejaVuSans-Oblique-52" transform="translate(2638.865234 0)"/>
    <use xlink:href="#DejaVuSans-Oblique-45" transform="translate(2708.347656 0)"/>
    <use xlink:href="#DejaVuSans-Oblique-53" transform="translate(2771.53125 0)"/>
    <use xlink:href="#DejaVuSans-Oblique-5f" transform="translate(2835.007812 0)"/>
    <use xlink:href="#DejaVuSans-Oblique-50" transform="translate(2885.007812 0)"/>
    <use xlink:href="#DejaVuSans-Oblique-4c" transform="translate(2945.310547 0)"/>
    <use xlink:href="#DejaVuSans-Oblique-41" transform="translate(3001.023438 0)"/>
    <use xlink:href="#DejaVuSans-Oblique-4e" transform="translate(3069.431641 0)"/>
    <use xlink:href="#DejaVuSans-Oblique-2e" transform="translate(3144.236328 0)"/>
    <use xlink:href="#DejaVuSans-Oblique-6d" transform="translate(3176.023438 0)"/>
    <use xlink:href="#DejaVuSans-Oblique-64" transform="translate(3273.435547 0)"/>
    <use xlink:href="#DejaVuSans-Oblique-20" transform="translate(3336.912109 0)"/>
    <use xlink:href="#DejaVuSans-Oblique-46" transform="translate(3368.699219 0)"/>
    <use xlink:href="#DejaVuSans-Oblique-69" transform="translate(3426.21875 0)"/>
    <use xlink:href="#DejaVuSans-Oblique-67" transform="translate(3454.001953 0)"/>
    <use xlink:href="#DejaVuSans-Oblique-20" transform="translate(3517.478516 0)"/>
    <use xlink:href="#DejaVuSans-Oblique-31" transform="translate(3549.265625 0)"/>
   </g>
  </g>
 </g>
 <defs>
  <clipPath id="p6e771bb0d5">
   <rect x="39.330625" y="21.558281" width="446.4" height="277.2"/>
  </clipPath>
 </defs>
</svg>
